<svg width="74" height="69" viewBox="0 0 74 69" fill="none" xmlns="http://www.w3.org/2000/svg">
<path d="M3.03793 43.583L14.2142 50.4005C15.7375 51.3078 17.5388 51.6305 19.2823 51.3083C21.0259 50.9862 22.593 50.0413 23.6916 48.6495L24.2579 47.9045V66.3825C24.2577 66.8689 24.4478 67.336 24.7875 67.6841C25.1273 68.0321 25.5896 68.2335 26.0759 68.2452H46.9382C47.4322 68.2452 47.906 68.0489 48.2553 67.6996C48.6046 67.3503 48.8009 66.8765 48.8009 66.3825V47.9268L49.3671 48.6719C50.4715 50.0614 52.0438 51.0015 53.7905 51.3168C55.5372 51.6322 57.3389 51.3012 58.8595 50.3856L69.9836 43.5904C70.6969 43.1636 71.3183 42.5992 71.8116 41.9301C72.3049 41.261 72.6603 40.5006 72.8572 39.6929C73.0541 38.8853 73.0885 38.0466 72.9585 37.2255C72.8284 36.4045 72.5364 35.6175 72.0996 34.9102C71.228 33.5152 69.8455 32.5161 68.2474 32.1263C66.6493 31.7365 64.9621 31.9869 63.546 32.824L56.9744 36.8325L54.2921 32.1758C53.2323 30.3461 51.7115 28.8261 49.8813 27.7672C48.0511 26.7083 45.9754 26.1475 43.861 26.1406H42.3708V26.0661C44.0671 24.9601 45.4068 23.3864 46.2279 21.5352C47.049 19.6841 47.3164 17.6348 46.9978 15.635C46.6913 13.4634 45.7014 11.4459 44.1716 9.87456C42.6418 8.30322 40.6515 7.2597 38.4889 6.89514C36.9635 6.60454 35.3928 6.65423 33.8888 7.04068C32.3849 7.42712 30.9847 8.1408 29.7884 9.13075C28.592 10.1207 27.629 11.3626 26.9679 12.7676C26.3068 14.1727 25.9641 15.7064 25.9641 17.2592C25.9703 19.0154 26.4068 20.7432 27.2355 22.2916C28.0643 23.8399 29.2599 25.1615 30.7177 26.1406H29.2276C27.1131 26.1475 25.0374 26.7083 23.2072 27.7672C21.377 28.8261 19.8562 30.3461 18.7964 32.1758L16.1141 36.8325L9.52014 32.8166C8.10103 31.9689 6.40548 31.7133 4.79957 32.105C3.19365 32.4968 1.80621 33.5043 0.936795 34.9102C0.500472 35.6163 0.208592 36.4019 0.0780639 37.2216C-0.0524644 38.0413 -0.019046 38.8787 0.176383 39.6853C0.371812 40.492 0.725367 41.2519 1.21656 41.9209C1.70776 42.59 2.32684 43.1549 3.03793 43.583V43.583ZM4.11084 36.8772C4.46105 36.3134 5.01687 35.9079 5.66072 35.7466C6.30456 35.5853 6.9859 35.6808 7.56057 36.013L15.7565 41.0125C15.9689 41.142 16.2051 41.2277 16.4511 41.2644C16.6972 41.3012 16.9481 41.2883 17.1891 41.2265C17.4301 41.1647 17.6563 41.0552 17.8543 40.9045C18.0523 40.7539 18.2181 40.5651 18.3419 40.3493L21.9779 34.0385C22.7115 32.7709 23.7653 31.7182 25.0337 30.9859C26.3021 30.2537 27.7406 29.8675 29.2052 29.866H30.6954C31.5256 29.9062 32.3454 29.6675 33.0243 29.1881C33.7033 28.7086 34.2024 28.0159 34.4423 27.22C34.6821 26.4242 34.6489 25.571 34.348 24.7962C34.0471 24.0214 33.4957 23.3695 32.7816 22.9442C31.4578 22.0793 30.4758 20.781 30.0038 19.2717C29.5319 17.7625 29.5992 16.1361 30.1944 14.671C30.7896 13.2059 31.8756 11.9933 33.2664 11.2408C34.6572 10.4883 36.2664 10.2427 37.8184 10.546C39.1964 10.7968 40.4599 11.4764 41.4287 12.488C42.3974 13.4996 43.0218 14.7913 43.2128 16.1789C43.422 17.4739 43.252 18.8018 42.7231 20.0023C42.1943 21.2028 41.3292 22.2246 40.2324 22.9442C39.7085 23.2852 39.2776 23.751 38.9785 24.2999C38.6793 24.8488 38.5213 25.4634 38.5187 26.0885C38.5128 26.5814 38.6048 27.0707 38.7894 27.5278C38.974 27.985 39.2474 28.401 39.594 28.7517C39.9405 29.1024 40.3532 29.3808 40.8081 29.5708C41.263 29.7608 41.7511 29.8586 42.2441 29.8586H43.7343C45.1989 29.86 46.6374 30.2462 47.9058 30.9785C49.1742 31.7108 50.228 32.7634 50.9616 34.031L54.5976 40.3419C54.7214 40.5577 54.8873 40.7464 55.0852 40.8971C55.2832 41.0477 55.5094 41.1572 55.7504 41.219C55.9914 41.2808 56.2423 41.2937 56.4884 41.257C56.7344 41.2202 56.9706 41.1345 57.183 41.005L65.379 36.0204C65.9532 35.6823 66.6368 35.582 67.284 35.7406C67.9312 35.8993 68.4908 36.3045 68.8436 36.8698C69.0215 37.158 69.1401 37.4788 69.1925 37.8135C69.2449 38.1481 69.2301 38.4898 69.149 38.8186C69.0678 39.1474 68.9219 39.4568 68.7198 39.7286C68.5177 40.0004 68.2634 40.2291 67.9718 40.4015L56.9074 47.1966C56.1623 47.6398 55.2815 47.7972 54.4291 47.6396C53.5766 47.4819 52.8104 47.0201 52.273 46.3398L48.3762 41.385C48.1374 41.0794 47.8091 40.8559 47.4372 40.7458C47.0653 40.6356 46.6683 40.6444 46.3016 40.7707C45.9349 40.897 45.6168 41.1347 45.3916 41.4505C45.1665 41.7663 45.0455 42.1446 45.0457 42.5324V64.5198H27.9684V42.5399C27.9685 42.152 27.8475 41.7738 27.6224 41.458C27.3972 41.1421 27.0791 40.9045 26.7124 40.7781C26.3457 40.6518 25.9487 40.6431 25.5768 40.7532C25.2049 40.8633 24.8767 41.0868 24.6379 41.3924L20.7411 46.3398C20.2063 47.0188 19.4433 47.4807 18.5937 47.6396C17.7441 47.7986 16.8657 47.6438 16.1216 47.2041L4.94534 40.3866C4.65602 40.213 4.40405 39.9837 4.20406 39.7119C4.00407 39.4402 3.86005 39.1314 3.78034 38.8035C3.70062 38.4757 3.68682 38.1353 3.73972 37.802C3.79262 37.4688 3.91117 37.1494 4.08849 36.8623L4.11084 36.8772Z" fill="#FFAEAD"/>
<path d="M63.9856 14.5619C65.4227 13.853 66.602 12.7124 67.3586 11.2999C68.1152 9.88743 68.4112 8.27369 68.2051 6.68462C67.9989 5.09555 67.3011 3.61072 66.2091 2.438C65.1172 1.26528 63.6858 0.463382 62.1155 0.144571C60.3623 -0.199239 58.5442 0.0745259 56.97 0.919352C55.3958 1.76418 54.1626 3.12796 53.48 4.77898C53.3875 5.00549 53.3406 5.248 53.3418 5.49266C53.3431 5.73731 53.3925 5.97932 53.4873 6.20487C53.5821 6.43042 53.7204 6.63509 53.8943 6.8072C54.0681 6.97931 54.2742 7.11549 54.5007 7.20795C54.7272 7.30041 54.9698 7.34736 55.2144 7.3461C55.4591 7.34484 55.7011 7.29541 55.9266 7.20062C56.1522 7.10584 56.3569 6.96755 56.529 6.79367C56.7011 6.61978 56.8372 6.4137 56.9297 6.18719C57.277 5.32862 57.915 4.61943 58.7322 4.1836C59.5494 3.74777 60.4937 3.61303 61.4002 3.80292C62.1559 3.95414 62.8499 4.32561 63.3949 4.87056C63.9398 5.4155 64.3113 6.10953 64.4625 6.86521C64.6416 7.72521 64.5294 8.62037 64.1436 9.40955C63.7577 10.1987 63.1202 10.8371 62.3316 11.2239C61.2495 11.7468 60.3375 12.565 59.7007 13.5841C59.0639 14.6033 58.7284 15.7817 58.7328 16.9834V18.3991C58.7328 18.8931 58.9291 19.3669 59.2784 19.7162C59.6277 20.0655 60.1015 20.2618 60.5955 20.2618C61.0895 20.2618 61.5633 20.0655 61.9126 19.7162C62.262 19.3669 62.4582 18.8931 62.4582 18.3991V16.9834C62.4572 16.4766 62.6003 15.9798 62.8707 15.5511C63.1411 15.1224 63.5278 14.7793 63.9856 14.5619V14.5619Z" fill="#FFAEAD"/>
<path d="M60.6098 23.6072C60.1158 23.6072 59.642 23.8034 59.2926 24.1528C58.9433 24.5021 58.7471 24.9759 58.7471 25.4699C58.7471 25.9639 58.9433 26.4377 59.2926 26.787C59.642 27.1363 60.1158 27.3326 60.6098 27.3326V27.3326C61.1038 27.3326 61.5776 27.1363 61.9269 26.787C62.2762 26.4377 62.4725 25.9639 62.4725 25.4699C62.4725 24.9759 62.2762 24.5021 61.9269 24.1528C61.5776 23.8034 61.1038 23.6072 60.6098 23.6072Z" fill="#FFAEAD"/>
<path d="M15.3756 14.5619C16.8127 13.8536 17.9923 12.7136 18.7493 11.3017C19.5064 9.88968 19.803 8.27634 19.5978 6.68742C19.3925 5.0985 18.6955 3.61352 17.6045 2.44033C16.5134 1.26713 15.0828 0.464431 13.5129 0.144571C11.7598 -0.199239 9.94161 0.0745259 8.36741 0.919352C6.79321 1.76418 5.56005 3.12796 4.87743 4.77898C4.78497 5.00549 4.73803 5.248 4.73928 5.49266C4.74054 5.73731 4.78997 5.97932 4.88476 6.20487C4.97955 6.43042 5.11783 6.63509 5.29172 6.8072C5.4656 6.97931 5.67168 7.11549 5.8982 7.20795C6.12471 7.30041 6.36721 7.34736 6.61187 7.3461C6.85652 7.34484 7.09854 7.29541 7.32409 7.20062C7.54964 7.10584 7.75431 6.96755 7.92642 6.79367C8.09853 6.61978 8.2347 6.4137 8.32716 6.18719C8.67445 5.32862 9.31245 4.61943 10.1296 4.1836C10.9468 3.74777 11.8912 3.61303 12.7977 3.80292C13.5533 3.95414 14.2474 4.32561 14.7923 4.87056C15.3373 5.4155 15.7087 6.10953 15.8599 6.86521C16.039 7.72521 15.9268 8.62037 15.541 9.40955C15.1552 10.1987 14.5177 10.8371 13.729 11.2239C12.647 11.7468 11.7349 12.565 11.0981 13.5841C10.4614 14.6033 10.1258 15.7817 10.1303 16.9834V18.3991C10.1303 18.8931 10.3265 19.3669 10.6758 19.7162C11.0252 20.0655 11.4989 20.2618 11.993 20.2618C12.487 20.2618 12.9608 20.0655 13.3101 19.7162C13.6594 19.3669 13.8557 18.8931 13.8557 18.3991V16.9834C13.8531 16.4772 13.9947 15.9806 14.2638 15.5518C14.533 15.123 14.9186 14.7797 15.3756 14.5619Z" fill="#FFAEAD"/>
<path d="M12.0092 23.6072C11.5152 23.6072 11.0414 23.8034 10.6921 24.1528C10.3427 24.5021 10.1465 24.9759 10.1465 25.4699C10.1465 25.9639 10.3427 26.4377 10.6921 26.787C11.0414 27.1363 11.5152 27.3326 12.0092 27.3326C12.5032 27.3326 12.977 27.1363 13.3263 26.787C13.6756 26.4377 13.8719 25.9639 13.8719 25.4699C13.8719 24.9759 13.6756 24.5021 13.3263 24.1528C12.977 23.8034 12.5032 23.6072 12.0092 23.6072Z" fill="#FFAEAD"/>
</svg>
