<svg width="70" height="70" viewBox="0 0 70 70" fill="none" xmlns="http://www.w3.org/2000/svg">
<circle cx="35" cy="35" r="33.5" stroke="#FFAEAD" stroke-width="3"/>
<circle cx="23.5361" cy="35.6034" r="0.603448" fill="#FFAEAD"/>
<circle cx="47.6708" cy="19.914" r="0.603448" fill="#FFAEAD"/>
<circle cx="48.8788" cy="52.4999" r="0.603448" fill="#FFAEAD"/>
<circle cx="12.6708" cy="50.0864" r="0.603448" fill="#FFAEAD"/>
<circle cx="18.7079" cy="11.4653" r="0.603448" fill="#FFAEAD"/>
<circle cx="64.5673" cy="44.0519" r="0.603448" fill="#FFAEAD"/>
<circle cx="44.0517" cy="10.2585" r="0.603448" fill="#FFAEAD"/>
<circle cx="31.9824" cy="57.3276" r="0.603448" fill="#FFAEAD"/>
<circle cx="52.499" cy="33.1894" r="0.603448" fill="#FFAEAD"/>
<circle cx="12.6708" cy="25.9484" r="0.603448" fill="#FFAEAD"/>
<circle cx="9.05169" cy="40.4311" r="0.603448" fill="#FFAEAD"/>
<path d="M33.7942 10.8618L35.1491 15.0315L39.5334 15.0315L35.9864 17.6086L37.3412 21.7783L33.7942 19.2013L30.2473 21.7783L31.6021 17.6086L28.0551 15.0315L32.4394 15.0315L33.7942 10.8618Z" fill="#FFAEAD"/>
<path d="M19.3092 41.0344L20.1221 43.5363H22.7526L20.6245 45.0825L21.4374 47.5843L19.3092 46.0381L17.181 47.5843L17.9939 45.0825L15.8657 43.5363H18.4963L19.3092 41.0344Z" fill="#FFAEAD"/>
<path d="M48.8786 33.7932L51.4528 41.7157L59.783 41.7157L53.0437 46.6121L55.6179 54.5345L48.8786 49.6382L42.1393 54.5345L44.7135 46.6121L37.9742 41.7157L46.3044 41.7157L48.8786 33.7932Z" fill="#FFAEAD"/>
</svg>
