<svg width="77" height="71" viewBox="0 0 77 71" fill="none" xmlns="http://www.w3.org/2000/svg">
<g clip-path="url(#clip0)">
<path d="M25.2482 43.4229H24.9715C24.0809 43.4248 23.2029 43.6331 22.4063 44.0315C21.6098 44.4299 20.9163 45.0075 20.3804 45.7189L19.0943 47.4338L17.8069 45.7189C17.2711 45.0076 16.5779 44.4301 15.7815 44.0318C14.9852 43.6334 14.1074 43.425 13.217 43.4229H12.9403C11.8284 43.4226 10.7405 43.7454 9.80868 44.3521C8.87688 44.9588 8.14138 45.8232 7.69161 46.8402C7.24184 47.8572 7.09718 48.9831 7.27521 50.0808C7.45325 51.1785 7.94631 52.2008 8.69444 53.0235L14.6427 59.5687C15.2065 60.1892 15.8938 60.6849 16.6604 61.0242C17.427 61.3634 18.256 61.5386 19.0943 61.5386C19.9325 61.5386 20.7615 61.3634 21.5281 61.0242C22.2947 60.6849 22.982 60.1892 23.5458 59.5687L29.4953 53.0235C30.2429 52.2006 30.7355 51.1782 30.9132 50.0805C31.0909 48.9829 30.9461 47.8572 30.4962 46.8404C30.0464 45.8235 29.311 44.9593 28.3794 44.3526C27.4477 43.7459 26.3599 43.4229 25.2482 43.4229V43.4229ZM27.7134 51.4037L21.7652 57.949C21.4206 58.3106 21.0062 58.5984 20.5471 58.7951C20.088 58.9918 19.5937 59.0932 19.0943 59.0932C18.5948 59.0932 18.1006 58.9918 17.6414 58.7951C17.1823 58.5984 16.7679 58.3106 16.4233 57.949L10.4739 51.4037C10.04 50.9258 9.75429 50.3322 9.6513 49.6949C9.54832 49.0577 9.63253 48.4043 9.89372 47.814C10.1549 47.2237 10.5818 46.7219 11.1226 46.3697C11.6635 46.0174 12.2949 45.8298 12.9403 45.8296H13.217C13.7341 45.8309 14.244 45.952 14.7065 46.1833C15.1691 46.4146 15.5718 46.75 15.8831 47.163L18.1318 50.1618C18.2487 50.304 18.3956 50.4185 18.5621 50.4971C18.7285 50.5757 18.9102 50.6164 19.0943 50.6164C19.2783 50.6164 19.46 50.5757 19.6265 50.4971C19.7929 50.4185 19.9398 50.304 20.0568 50.1618L22.3054 47.163C22.6165 46.7498 23.0192 46.4143 23.4818 46.1829C23.9444 45.9516 24.4543 45.8307 24.9715 45.8296H25.2482C25.8937 45.8295 26.5254 46.017 27.0663 46.3692C27.6073 46.7215 28.0343 47.2234 28.2954 47.8138C28.5566 48.4043 28.6406 49.0579 28.5373 49.6952C28.4339 50.3325 28.1477 50.9261 27.7134 51.4037V51.4037Z" fill="#FFAEAD"/>
<path d="M63.7482 43.4229H63.4715C62.5809 43.4248 61.7029 43.6331 60.9063 44.0315C60.1098 44.4299 59.4163 45.0075 58.8804 45.7189L57.5943 47.4338L56.3069 45.7189C55.7711 45.0076 55.0779 44.4301 54.2815 44.0318C53.4852 43.6334 52.6074 43.425 51.717 43.4229H51.4403C50.3284 43.4226 49.2405 43.7454 48.3087 44.3521C47.3769 44.9588 46.6414 45.8232 46.1916 46.8402C45.7418 47.8572 45.5972 48.9831 45.7752 50.0808C45.9532 51.1785 46.4463 52.2008 47.1944 53.0235L53.1427 59.5687C53.7065 60.1892 54.3938 60.6849 55.1604 61.0242C55.927 61.3634 56.756 61.5386 57.5943 61.5386C58.4325 61.5386 59.2615 61.3634 60.0281 61.0242C60.7947 60.6849 61.482 60.1892 62.0458 59.5687L67.9953 53.0235C68.7429 52.2006 69.2355 51.1782 69.4132 50.0805C69.5909 48.9829 69.4461 47.8572 68.9962 46.8404C68.5464 45.8235 67.811 44.9593 66.8794 44.3526C65.9477 43.7459 64.8599 43.4229 63.7482 43.4229V43.4229ZM66.2134 51.4037L60.2652 57.949C59.9206 58.3106 59.5062 58.5984 59.0471 58.7951C58.588 58.9918 58.0937 59.0932 57.5943 59.0932C57.0948 59.0932 56.6006 58.9918 56.1414 58.7951C55.6823 58.5984 55.2679 58.3106 54.9233 57.949L48.9739 51.4037C48.54 50.9258 48.2543 50.3322 48.1513 49.6949C48.0483 49.0577 48.1325 48.4043 48.3937 47.814C48.6549 47.2237 49.0818 46.7219 49.6226 46.3697C50.1635 46.0174 50.7949 45.8298 51.4403 45.8296H51.717C52.2341 45.8309 52.744 45.952 53.2065 46.1833C53.6691 46.4146 54.0718 46.75 54.3831 47.163L56.6318 50.1618C56.7487 50.304 56.8956 50.4185 57.0621 50.4971C57.2285 50.5757 57.4102 50.6164 57.5943 50.6164C57.7783 50.6164 57.96 50.5757 58.1265 50.4971C58.2929 50.4185 58.4398 50.304 58.5568 50.1618L60.8054 47.163C61.1165 46.7498 61.5192 46.4143 61.9818 46.1829C62.4444 45.9516 62.9543 45.8307 63.4715 45.8296H63.7482C64.3937 45.8295 65.0254 46.017 65.5663 46.3692C66.1073 46.7215 66.5343 47.2234 66.7954 47.8138C67.0566 48.4043 67.1406 49.0579 67.0373 49.6952C66.9339 50.3325 66.6477 50.9261 66.2134 51.4037V51.4037Z" fill="#FFAEAD"/>
<path d="M71.3056 40.6359L62.5445 14.3406C62.5178 11.4682 61.3515 8.72397 59.302 6.7117C57.2525 4.69943 54.4877 3.58392 51.6159 3.61057C48.7441 3.63722 46.0005 4.80385 43.9887 6.85381C41.9769 8.90377 40.8616 11.6691 40.8882 14.5416V20.0242C40.1619 19.5864 39.33 19.3551 38.482 19.3551C37.634 19.3551 36.8021 19.5864 36.0757 20.0242V14.5416C36.1024 11.6691 34.9871 8.90377 32.9753 6.85381C31.9791 5.83877 30.7928 5.02993 29.4842 4.47345C28.1755 3.91698 26.77 3.62377 25.3481 3.61057C23.9261 3.59738 22.5155 3.86445 21.1967 4.39654C19.8779 4.92864 18.6768 5.71533 17.662 6.7117C15.6125 8.72397 14.4461 11.4682 14.4195 14.3406L5.61381 40.7682C4.09397 42.8637 3.07774 45.2815 2.64414 47.8338C2.21053 50.386 2.37122 53.0038 3.11371 55.4838C3.85621 57.9638 5.16051 60.2392 6.92522 62.1329C8.68993 64.0267 10.8675 65.4879 13.2887 66.4029C15.7099 67.318 18.3094 67.6622 20.8852 67.4088C23.461 67.1555 25.9437 66.3114 28.1403 64.9421C30.3369 63.5729 32.1882 61.7154 33.5503 59.5141C34.9124 57.3128 35.7486 54.8269 35.9939 52.2498C36.0445 52.1212 36.0722 51.9848 36.0757 51.8467V41.5504C36.8021 41.9882 37.634 42.2196 38.482 42.2196C39.33 42.2196 40.1619 41.9882 40.8882 41.5504V51.8467C40.8918 51.9848 40.9195 52.1212 40.97 52.2498C41.2089 54.8357 42.0422 57.3314 43.4048 59.5419C44.7675 61.7524 46.6226 63.618 48.8253 64.9928C51.0279 66.3676 53.5185 67.2145 56.1026 67.4673C58.6866 67.7201 61.2941 67.372 63.7213 66.4502C66.1486 65.5284 68.33 64.0578 70.0951 62.1533C71.8601 60.2488 73.1612 57.9619 73.8965 55.4713C74.6318 52.9807 74.7815 50.3538 74.334 47.7957C73.8864 45.2377 72.8537 42.8177 71.3165 40.7249C71.3093 40.6948 71.3153 40.6648 71.3056 40.6359ZM19.232 65.0839C16.3765 65.0839 13.5852 64.237 11.2109 62.6502C8.83671 61.0635 6.98622 58.8082 5.89348 56.1695C4.80073 53.5308 4.51482 50.6272 5.0719 47.826C5.62897 45.0248 7.00401 42.4517 9.02313 40.4322C11.0423 38.4126 13.6148 37.0373 16.4154 36.4801C19.216 35.9229 22.1189 36.2088 24.757 37.3018C27.3951 38.3948 29.6499 40.2457 31.2363 42.6205C32.8227 44.9952 33.6695 47.7872 33.6695 50.6433C33.6653 54.4719 32.1429 58.1425 29.4363 60.8498C26.7296 63.557 23.0598 65.0798 19.232 65.0839V65.0839ZM33.6695 24.1687V42.0101C32.4799 40.0051 30.8856 38.2702 28.9882 36.9159C27.0907 35.5617 24.9319 34.6179 22.6495 34.1448C20.367 33.6718 18.011 33.6798 15.7318 34.1683C13.4526 34.6569 11.3003 35.6153 9.41208 36.9824L16.7644 14.9218C16.8051 14.7992 16.8258 14.6708 16.8257 14.5416C16.8257 12.3075 17.713 10.1648 19.2924 8.58509C20.8719 7.00533 23.014 6.11784 25.2476 6.11784C27.4812 6.11784 29.6234 7.00533 31.2028 8.58509C32.7822 10.1648 33.6695 12.3075 33.6695 14.5416V24.1687ZM38.482 39.8128C38.0061 39.8128 37.5409 39.6716 37.1451 39.4071C36.7494 39.1427 36.441 38.7668 36.2589 38.327C36.0768 37.8872 36.0291 37.4033 36.122 36.9364C36.2148 36.4696 36.444 36.0407 36.7805 35.7041C37.117 35.3675 37.5458 35.1383 38.0125 35.0454C38.4793 34.9526 38.9631 35.0002 39.4028 35.1824C39.8425 35.3646 40.2183 35.673 40.4827 36.0688C40.7471 36.4646 40.8882 36.93 40.8882 37.406C40.8882 38.0443 40.6347 38.6565 40.1835 39.1078C39.7322 39.5592 39.1202 39.8128 38.482 39.8128ZM40.8882 33.2615C40.1619 32.8237 39.33 32.5924 38.482 32.5924C37.634 32.5924 36.8021 32.8237 36.0757 33.2615V24.1687C36.0757 23.5304 36.3293 22.9182 36.7805 22.4668C37.2318 22.0155 37.8438 21.7619 38.482 21.7619C39.1202 21.7619 39.7322 22.0155 40.1835 22.4668C40.6347 22.9182 40.8882 23.5304 40.8882 24.1687V33.2615ZM43.2945 37.406V14.5416C43.2945 12.3075 44.1818 10.1648 45.7612 8.58509C47.3406 7.00533 49.4827 6.11784 51.7164 6.11784C53.95 6.11784 56.0921 7.00533 57.6715 8.58509C59.2509 10.1648 60.1382 12.3075 60.1382 14.5416C60.1381 14.6708 60.1589 14.7992 60.1996 14.9218L67.5519 36.9836C65.6639 35.6161 63.5116 34.6573 61.2324 34.1684C58.9532 33.6796 56.5971 33.6714 54.3146 34.1444C52.032 34.6174 49.8731 35.5611 47.9756 36.9155C46.0782 38.2698 44.4839 40.005 43.2945 42.0101V37.406ZM57.732 65.0839C54.8765 65.0839 52.0852 64.237 49.7109 62.6502C47.3367 61.0635 45.4862 58.8082 44.3935 56.1695C43.3007 53.5308 43.0148 50.6272 43.5719 47.826C44.129 45.0248 45.504 42.4517 47.5231 40.4322C49.5423 38.4126 52.1148 37.0373 54.9154 36.4801C57.716 35.9229 60.6189 36.2088 63.257 37.3018C65.8951 38.3948 68.1499 40.2457 69.7363 42.6205C71.3227 44.9952 72.1695 47.7872 72.1695 50.6433C72.1653 54.4719 70.6429 58.1425 67.9363 60.8498C65.2296 63.557 61.5598 65.0798 57.732 65.0839V65.0839Z" fill="#FFAEAD"/>
</g>
<defs>
<clipPath id="clip0">
<rect width="77" height="71" fill="white"/>
</clipPath>
</defs>
</svg>
