<svg xmlns="http://www.w3.org/2000/svg" viewBox="0 0 313.15 287.38"><defs><style>.cls-1{fill:#ffaead;}.cls-2{fill:none;stroke:#ffaead;stroke-miterlimit:10;stroke-width:7.96px;}</style></defs><title>Asset 1</title><g id="Layer_2" data-name="Layer 2"><g id="Layer_2-2" data-name="Layer 2"><path class="cls-1" d="M153.65,240.24a280.91,280.91,0,0,1-52.72-14.36,210.71,210.71,0,0,1-25-11.64,169.38,169.38,0,0,1-23-15.39,138.8,138.8,0,0,1-35.72-42.46A152.72,152.72,0,0,1,.72,103.3a102.63,102.63,0,0,1,.54-28.22,93.6,93.6,0,0,1,3.3-13.8A89.84,89.84,0,0,1,10,48.2,81.14,81.14,0,0,1,26.9,25.43,62.27,62.27,0,0,1,51.57,11.27,59.54,59.54,0,0,1,79.81,9.83,62.33,62.33,0,0,1,105.46,21a61.2,61.2,0,0,1,17.87,21.13,63.43,63.43,0,0,1,4.84,12.91A66.07,66.07,0,0,1,130,68.62a65.21,65.21,0,0,0-8.55-25.43A59.86,59.86,0,0,0,103.3,24.11,59,59,0,0,0,79,14.8,55.87,55.87,0,0,0,53.38,17a54.71,54.71,0,0,0-11.64,5.46,63.1,63.1,0,0,0-10.15,7.92,74,74,0,0,0-15,21.08A87.5,87.5,0,0,0,8.88,76.28a94.52,94.52,0,0,0-.32,26.08c.54,4.33,1.34,8.75,2.23,13.07s2,8.64,3.24,12.87a138.79,138.79,0,0,0,10,24.51A133.4,133.4,0,0,0,38.46,175,147.37,147.37,0,0,0,57,194,166.93,166.93,0,0,0,78.69,209.6a206.86,206.86,0,0,0,23.8,12.57C118.88,229.68,136.16,235.3,153.65,240.24Z"/><path class="cls-1" d="M143.27,24.94a76.79,76.79,0,0,1,10.48-9.82A73.27,73.27,0,0,1,166,7.51,74.58,74.58,0,0,1,194,.15a82.11,82.11,0,0,1,29,3.5,83.6,83.6,0,0,1,26.13,13.48,74.77,74.77,0,0,1,10.91,10.15,70,70,0,0,1,8.7,12.28,59,59,0,0,1,5.59,14.11A58.27,58.27,0,0,1,276,68.77a67.23,67.23,0,0,1-7.35,28.8A86.68,86.68,0,0,1,261,110a95.18,95.18,0,0,1-9.53,10.87l-.62-.5c2.48-4.08,4.94-8.11,7.07-12.29a112.91,112.91,0,0,0,5.6-12.75,72,72,0,0,0,4.54-26.56,62.17,62.17,0,0,0-6.32-25.61,63.54,63.54,0,0,0-16.6-21.09,79.4,79.4,0,0,0-51-18A71.26,71.26,0,0,0,167,9.74a74.55,74.55,0,0,0-23.19,15.74Z"/><circle class="cls-2" cx="226.36" cy="200.59" r="82.81"/><path class="cls-1" d="M226,149.63c-.63-1.79-1.11-3.58-1.59-5.37l-.66-2.68c-.2-.9-.37-1.79-.54-2.68s-.5-1.79-.75-2.69a4.88,4.88,0,0,1,0-2.68,9.78,9.78,0,0,1,1.16-2.69,10.29,10.29,0,0,1,2.42-2.68h.79a10.29,10.29,0,0,1,2.42,2.68,9.78,9.78,0,0,1,1.16,2.69,4.88,4.88,0,0,1,0,2.68c-.25.9-.59,1.79-.75,2.69s-.34,1.78-.54,2.68l-.66,2.68c-.48,1.79-1,3.58-1.59,5.37Z"/><path class="cls-1" d="M234.76,252.42c.63,1.79,1.1,3.58,1.59,5.37l.66,2.68c.19.89.37,1.79.53,2.68s.51,1.79.76,2.69a4.88,4.88,0,0,1,0,2.68,9.47,9.47,0,0,1-1.17,2.68,10.26,10.26,0,0,1-2.41,2.69H234a10.44,10.44,0,0,1-2.41-2.69,9.76,9.76,0,0,1-1.17-2.68,5,5,0,0,1,0-2.68,27.08,27.08,0,0,0,.76-2.69c.16-.89.34-1.79.53-2.68l.66-2.68c.49-1.79,1-3.58,1.59-5.37Z"/><path class="cls-1" d="M176.75,201c-1.79.63-3.58,1.1-5.37,1.59l-2.68.66c-.89.19-1.79.37-2.68.53a27.08,27.08,0,0,0-2.69.76,4.88,4.88,0,0,1-2.68,0A9.64,9.64,0,0,1,158,203.4a10.44,10.44,0,0,1-2.69-2.41v-.8a10.26,10.26,0,0,1,2.69-2.41,9.35,9.35,0,0,1,2.68-1.17,4.88,4.88,0,0,1,2.68,0c.9.25,1.79.6,2.69.76s1.79.34,2.68.53l2.68.66c1.79.49,3.58,1,5.37,1.59Z"/><path class="cls-1" d="M277.39,200.19c1.79-.63,3.58-1.1,5.37-1.59l2.68-.66c.89-.19,1.79-.37,2.68-.53s1.79-.51,2.69-.76a4.88,4.88,0,0,1,2.68,0,9.47,9.47,0,0,1,2.68,1.17,10.26,10.26,0,0,1,2.69,2.41v.8a10.44,10.44,0,0,1-2.69,2.41,9.76,9.76,0,0,1-2.68,1.17,4.88,4.88,0,0,1-2.68,0,27.08,27.08,0,0,0-2.69-.76c-.89-.16-1.79-.34-2.68-.53l-2.68-.66c-1.79-.49-3.58-1-5.37-1.59Z"/><path class="cls-1" d="M251.18,172a83.52,83.52,0,0,1-4.5,9.38c-1.65,3-3.41,5.94-5.25,8.81s-3.76,5.67-5.77,8.41-4.06,5.43-6.19,8.08l-.78-5.53q3,2.37,6,4.87c2,1.67,3.9,3.37,5.79,5.15s3.74,3.6,5.53,5.5a72.88,72.88,0,0,1,5.17,6,76,76,0,0,1-7.24-3.2c-2.34-1.15-4.62-2.39-6.87-3.68s-4.44-2.65-6.62-4-4.31-2.83-6.41-4.31a3.81,3.81,0,0,1-.94-5.31l0,0,.12-.17c2-2.74,4.07-5.43,6.22-8.07s4.36-5.2,6.64-7.73,4.68-5,7.16-7.34A86.26,86.26,0,0,1,251.18,172Z"/></g></g></svg>